<svg xmlns="http://www.w3.org/2000/svg" width="30.8mm" height="6.31mm" viewBox="0 0 87.3 17.89">
  <g id="f1fa327f-8882-462c-851f-18a10134326f" data-name="Layer 1">
    <path d="M18.74,17.42h-.6c-.1,0-.2-.1-.3-.2a.3.3,0,0,1,0-.4l.2-.6a6.21,6.21,0,0,1,.3-1c.1-.1,0-.2-.1-.3a1.23,1.23,0,0,1-.4-.8,1.39,1.39,0,0,1,0-.9,1.16,1.16,0,0,1,.5-.7.37.37,0,0,0,.1-.3V5.53h-.2l-5.6,1.7-1.1.4a1.7,1.7,0,0,1-1,0c-2.1-.7-3.7-1.2-4.8-1.6Q3,5,.94,4.23L.74,4s-.1-.2,0-.3a.37.37,0,0,1,.1-.3c.1-.1.1-.1.2-.1,1-.4,2.4-.9,4.3-1.5L7,1.23c.5-.2,1.2-.4,2.2-.7l1-.3a3.08,3.08,0,0,1,1.9,0q2.85.9,4.5,1.5,2.55.9,4.5,1.8h.1c.3,0,.4.3.4.5a.35.35,0,0,1-.4.4c-1,.3-1.7.6-2.1.7a.1.1,0,0,0-.1.1v6.89c0,.11,0,.2.1.2a1.34,1.34,0,0,1,.6.7,3.4,3.4,0,0,1,.1,1,2,2,0,0,1-.5.9l-.1.1v.2l.4,1.5c.1.5,0,.7-.4.7ZM4.34,7.93V6.43h.2a40.14,40.14,0,0,0,4,1.4l2.2.7a.64.64,0,0,0,.6,0,1.58,1.58,0,0,0,.6-.2c.8-.2,1.8-.6,3.3-1.1l2.4-.8h.3V9a1.84,1.84,0,0,1-.4,1.3,3.27,3.27,0,0,1-1.5,1.1,10.5,10.5,0,0,1-3.5.8,12,12,0,0,1-3.8-.2,6.72,6.72,0,0,1-2.8-1,2.84,2.84,0,0,1-1-.9.92.92,0,0,1-.6-1Z" transform="translate(0 0.47)" style="fill: #0e79dc"/>
    <g>
      <path d="M21.12,11V6.52A.76.76,0,0,1,21.28,6a.6.6,0,0,1,.84,0,.75.75,0,0,1,.16.53V11a.73.73,0,0,1-.16.53.58.58,0,0,1-.84,0A.8.8,0,0,1,21.12,11Z" transform="translate(0 0.47)"/>
      <path d="M24,8v.13a1.7,1.7,0,0,1,.61-.54,1.59,1.59,0,0,1,.77-.18,1.44,1.44,0,0,1,.75.19,1.14,1.14,0,0,1,.5.52,1.23,1.23,0,0,1,.14.42,4.51,4.51,0,0,1,0,.58v2a.72.72,0,0,1-.15.49.51.51,0,0,1-.38.16.51.51,0,0,1-.39-.17.69.69,0,0,1-.14-.48V9.31a1.7,1.7,0,0,0-.15-.8A.59.59,0,0,0,25,8.23a.79.79,0,0,0-.51.17,1,1,0,0,0-.35.46,3.44,3.44,0,0,0-.08.89v1.34a.7.7,0,0,1-.15.49.53.53,0,0,1-.39.16.47.47,0,0,1-.37-.17.69.69,0,0,1-.15-.48V8a.68.68,0,0,1,.13-.46.51.51,0,0,1,.62-.08.51.51,0,0,1,.18.2A.79.79,0,0,1,24,8Z" transform="translate(0 0.47)"/>
      <path d="M28.31,8v.13a1.82,1.82,0,0,1,.62-.54,1.59,1.59,0,0,1,.77-.18,1.44,1.44,0,0,1,.75.19,1.14,1.14,0,0,1,.5.52,1.21,1.21,0,0,1,.13.42,4.51,4.51,0,0,1,0,.58v2a.77.77,0,0,1-.14.49.53.53,0,0,1-.38.16.51.51,0,0,1-.39-.17.69.69,0,0,1-.15-.48V9.31a1.7,1.7,0,0,0-.15-.8.58.58,0,0,0-.58-.28.83.83,0,0,0-.52.17,1,1,0,0,0-.34.46,3.44,3.44,0,0,0-.08.89v1.34a.7.7,0,0,1-.15.49.53.53,0,0,1-.39.16.5.5,0,0,1-.38-.17.69.69,0,0,1-.15-.48V8a.68.68,0,0,1,.14-.46.45.45,0,0,1,.36-.15.43.43,0,0,1,.25.07.39.39,0,0,1,.18.2A.66.66,0,0,1,28.31,8Z" transform="translate(0 0.47)"/>
      <path d="M35.67,9.57a2.5,2.5,0,0,1-.15.88,1.76,1.76,0,0,1-.43.69,2,2,0,0,1-.67.45,2.42,2.42,0,0,1-.88.15,2.21,2.21,0,0,1-.87-.16,2,2,0,0,1-.67-.44,2.06,2.06,0,0,1-.43-.69,2.75,2.75,0,0,1-.14-.88,2.56,2.56,0,0,1,.15-.89,1.85,1.85,0,0,1,1.09-1.12,2.28,2.28,0,0,1,.87-.16,2.42,2.42,0,0,1,.88.16A1.86,1.86,0,0,1,35.1,8a2.06,2.06,0,0,1,.43.69A2.75,2.75,0,0,1,35.67,9.57Zm-1.07,0a1.6,1.6,0,0,0-.28-1,.93.93,0,0,0-.78-.37,1,1,0,0,0-.55.16,1,1,0,0,0-.36.48,1.88,1.88,0,0,0-.13.74,2,2,0,0,0,.12.73,1.07,1.07,0,0,0,.37.48.94.94,0,0,0,.55.17,1,1,0,0,0,.78-.37A1.6,1.6,0,0,0,34.6,9.57Z" transform="translate(0 0.47)"/>
      <path d="M36.67,8.07l.86,2.42L38.46,8a1.42,1.42,0,0,1,.21-.43A.41.41,0,0,1,39,7.4a.5.5,0,0,1,.35.14.45.45,0,0,1,.14.32,1.15,1.15,0,0,1,0,.16l-.06.18-.08.18-1,2.54-.11.28a1.57,1.57,0,0,1-.16.29.49.49,0,0,1-.2.18.56.56,0,0,1-.3.07.64.64,0,0,1-.36-.1.7.7,0,0,1-.2-.23,3.77,3.77,0,0,1-.22-.49l-1-2.51c0-.06-.05-.12-.08-.19L35.6,8a.52.52,0,0,1,0-.17.42.42,0,0,1,.06-.21.66.66,0,0,1,.19-.18.52.52,0,0,1,.25-.07.37.37,0,0,1,.36.16A2.57,2.57,0,0,1,36.67,8.07Z" transform="translate(0 0.47)"/>
      <path d="M42.34,11.14a3.38,3.38,0,0,1-.75.45,2.09,2.09,0,0,1-.81.15,1.66,1.66,0,0,1-.72-.16,1.21,1.21,0,0,1-.48-.44,1.17,1.17,0,0,1-.16-.6,1.1,1.1,0,0,1,.27-.75,1.38,1.38,0,0,1,.76-.41L41,9.27l.69-.15L42.27,9a1.12,1.12,0,0,0-.17-.62.76.76,0,0,0-.62-.19,1.23,1.23,0,0,0-.61.11,1,1,0,0,0-.35.34l-.21.3s-.13.07-.26.07a.47.47,0,0,1-.31-.11.38.38,0,0,1-.13-.3.87.87,0,0,1,.2-.55,1.42,1.42,0,0,1,.62-.43,2.69,2.69,0,0,1,1-.17,3,3,0,0,1,1.1.16,1,1,0,0,1,.57.53,2.28,2.28,0,0,1,.17.95v.64c0,.17,0,.37,0,.58a2.06,2.06,0,0,0,.1.63,1.63,1.63,0,0,1,.1.42.36.36,0,0,1-.16.29.51.51,0,0,1-.34.14.49.49,0,0,1-.33-.15A2.62,2.62,0,0,1,42.34,11.14Zm-.07-1.55a5.8,5.8,0,0,1-.68.19L41,9.92a1,1,0,0,0-.33.17.47.47,0,0,0-.15.37.54.54,0,0,0,.18.41.69.69,0,0,0,.48.17,1.27,1.27,0,0,0,.58-.14.94.94,0,0,0,.4-.36,1.68,1.68,0,0,0,.14-.79Z" transform="translate(0 0.47)"/>
      <path d="M46.81,10H45.58a.61.61,0,0,1-.43-.13A.43.43,0,0,1,45,9.56a.46.46,0,0,1,.14-.34.63.63,0,0,1,.44-.13h1.23a.6.6,0,0,1,.43.13.48.48,0,0,1,0,.68A.58.58,0,0,1,46.81,10Z" transform="translate(0 0.47)" style="fill: #0e79dc"/>
      <path d="M49,10H47.74a.59.59,0,0,1-.42-.13.43.43,0,0,1-.15-.34.46.46,0,0,1,.14-.34.61.61,0,0,1,.43-.13H49a.6.6,0,0,1,.43.13.46.46,0,0,1,.14.34.42.42,0,0,1-.14.34A.6.6,0,0,1,49,10Z" transform="translate(0 0.47)"/>
      <path d="M55,6.87H53.78V11a.83.83,0,0,1-.16.54.57.57,0,0,1-.42.17.54.54,0,0,1-.42-.18.73.73,0,0,1-.16-.53V6.87H51.35a.64.64,0,0,1-.44-.13.5.5,0,0,1,0-.7.67.67,0,0,1,.43-.13H55a.65.65,0,0,1,.45.14.43.43,0,0,1,.14.35.46.46,0,0,1-.14.34A.65.65,0,0,1,55,6.87Z" transform="translate(0 0.47)" style="fill: #0e79dc"/>
      <path d="M60.1,6.81H57.48V8.22h2.41a.64.64,0,0,1,.4.11.46.46,0,0,1,0,.64.58.58,0,0,1-.4.12H57.48v1.63h2.71a.58.58,0,0,1,.41.13.46.46,0,0,1,0,.66.58.58,0,0,1-.41.13H57a.7.7,0,0,1-.54-.17.74.74,0,0,1-.17-.54V6.63a.93.93,0,0,1,.08-.41A.43.43,0,0,1,56.63,6a.92.92,0,0,1,.4-.08H60.1a.61.61,0,0,1,.41.13.41.41,0,0,1,.13.32.43.43,0,0,1-.13.33A.61.61,0,0,1,60.1,6.81Z" transform="translate(0 0.47)" style="fill: #0e79dc"/>
      <path d="M66.54,9.83a1.53,1.53,0,0,1-.14.59,2.17,2.17,0,0,1-.42.63,2.24,2.24,0,0,1-.74.5,2.81,2.81,0,0,1-1,.19,3.49,3.49,0,0,1-.82-.09,2.08,2.08,0,0,1-.67-.26,2.55,2.55,0,0,1-.56-.48,2.89,2.89,0,0,1-.39-.61,4,4,0,0,1-.24-.71,4.09,4.09,0,0,1-.08-.8,3.62,3.62,0,0,1,.2-1.24,2.71,2.71,0,0,1,.58-.94A2.53,2.53,0,0,1,63.09,6a3,3,0,0,1,2.31.07,2.31,2.31,0,0,1,.83.69,1.37,1.37,0,0,1,.29.77.52.52,0,0,1-.14.35.46.46,0,0,1-.34.16A.45.45,0,0,1,65.71,8a1.29,1.29,0,0,1-.25-.36A1.73,1.73,0,0,0,64.93,7a1.33,1.33,0,0,0-.76-.21A1.37,1.37,0,0,0,63,7.28a2.47,2.47,0,0,0-.42,1.54,3,3,0,0,0,.18,1.12,1.39,1.39,0,0,0,1.34.88,1.47,1.47,0,0,0,.85-.25,1.55,1.55,0,0,0,.52-.73,1.42,1.42,0,0,1,.18-.37A.42.42,0,0,1,66,9.33a.52.52,0,0,1,.36.14A.49.49,0,0,1,66.54,9.83Z" transform="translate(0 0.47)" style="fill: #0e79dc"/>
      <path d="M68.75,6.52V8.16h2.5V6.52A.76.76,0,0,1,71.41,6a.56.56,0,0,1,.42-.17.57.57,0,0,1,.42.17.75.75,0,0,1,.16.53V11a.73.73,0,0,1-.16.53.54.54,0,0,1-.42.18.52.52,0,0,1-.42-.18.75.75,0,0,1-.16-.53V9.11h-2.5V11a.73.73,0,0,1-.17.53.58.58,0,0,1-.84,0,.8.8,0,0,1-.15-.53V6.52A.82.82,0,0,1,67.74,6a.56.56,0,0,1,.42-.17.58.58,0,0,1,.43.17A.8.8,0,0,1,68.75,6.52Z" transform="translate(0 0.47)" style="fill: #0e79dc"/>
    </g>
  </g>
  <g id="f7d83ee4-c1a9-46b1-ac47-3cbad9dd19a1" data-name="Capa 2">
    <rect width="87.3" height="17.89" style="fill: none"/>
  </g>
</svg>
