<?xml version="1.0" encoding="utf-8"?>
<!-- Generator: Adobe Illustrator 25.2.3, SVG Export Plug-In . SVG Version: 6.00 Build 0)  -->
<svg version="1.1" id="Layer_1" xmlns="http://www.w3.org/2000/svg" xmlns:xlink="http://www.w3.org/1999/xlink" x="0px" y="0px"
	 viewBox="0 0 87.3 17.5" style="enable-background:new 0 0 87.3 17.5;" xml:space="preserve">
<style type="text/css">
	.st0{fill:#0E79DC;}
	.st1{fill:none;}
	.st2{font-family:'ArialRoundedMTBold';}
	.st3{font-size:8px;}
</style>
<path class="st0" d="M18.7,17.4h-0.2c-0.1,0-0.3,0-0.4,0s-0.2-0.1-0.3-0.2c-0.1-0.1-0.1-0.3,0-0.4l0.2-0.6c0.1-0.4,0.2-0.8,0.3-1
	c0.1-0.1,0-0.2-0.1-0.3c-0.2-0.2-0.4-0.5-0.4-0.8c-0.1-0.3-0.1-0.6,0-0.9c0.1-0.3,0.2-0.5,0.5-0.7c0.1-0.1,0.1-0.2,0.1-0.3V5.7
	c0-0.1,0-0.2,0-0.2s-0.1,0-0.2,0l-5.6,1.7l-1.1,0.4c-0.3,0.1-0.7,0.1-1,0C8.4,6.9,6.8,6.4,5.7,6C3.9,5.3,2.3,4.7,0.9,4.2
	c0,0-0.1-0.1-0.2-0.2c0,0-0.1-0.2,0-0.3c0-0.1,0-0.2,0.1-0.3S0.9,3.3,1,3.3c1-0.4,2.4-0.9,4.3-1.5L7,1.2C7.5,1,8.2,0.8,9.2,0.5
	l1-0.3c0.6-0.2,1.3-0.2,1.9,0c1.9,0.6,3.4,1.1,4.5,1.5c1.7,0.6,3.2,1.2,4.5,1.8h0.1c0.3,0,0.4,0.3,0.4,0.5c0,0.1,0,0.2-0.1,0.3
	c-0.1,0.1-0.2,0.1-0.3,0.1c-1,0.3-1.7,0.6-2.1,0.7C19,5.1,19,5.2,19,5.2c0,0.1,0,0.1,0,0.2v6.7c0,0.1,0,0.2,0.1,0.2
	c0.3,0.2,0.5,0.4,0.6,0.7s0.1,0.7,0.1,1c-0.1,0.3-0.2,0.6-0.5,0.9L19.2,15c0,0.1,0,0.1,0,0.2l0.4,1.5c0.1,0.5,0,0.7-0.4,0.7H18.7z
	 M4.3,7.9V7.5c0-0.4,0-0.7,0-0.9c0-0.1,0-0.1,0-0.2c0,0,0.1,0,0.2,0c1.7,0.7,3,1.1,4,1.4l2.2,0.7c0.2,0.1,0.4,0.1,0.6,0
	c0.2,0,0.4-0.1,0.6-0.2c0.8-0.2,1.8-0.6,3.3-1.1l2.4-0.8c0.1,0,0.2,0,0.3,0c0,0.1,0,0.2,0,0.3V9c0,0.5-0.1,1-0.4,1.3
	c-0.4,0.5-0.9,0.9-1.5,1.1c-1.1,0.5-2.3,0.7-3.5,0.8c-1.3,0.1-2.6,0.1-3.8-0.2c-1-0.1-2-0.5-2.8-1c-0.4-0.2-0.7-0.5-1-0.9
	c-0.4-0.1-0.6-0.5-0.6-1V7.9z"/>
<rect x="20.5" y="5.8" class="st1" width="57.2" height="12.9"/>
<text transform="matrix(1 0 0 1 20.4499 11.6415)"><tspan x="0" y="0" class="st2 st3">Innova </tspan><tspan x="24.6" y="0" class="st0 st2 st3">-</tspan><tspan x="26.8" y="0" class="st2 st3">- </tspan><tspan x="30.5" y="0" class="st0 st2 st3">TECH</tspan></text>
</svg>
